<?xml version="1.0" encoding="utf-8"?>
<!-- Generator: Adobe Illustrator 24.0.0, SVG Export Plug-In . SVG Version: 6.00 Build 0)  -->
<svg version="1.1" id="Layer_1" xmlns="http://www.w3.org/2000/svg" xmlns:xlink="http://www.w3.org/1999/xlink" x="0px" y="0px"
	 viewBox="0 0 964 268" style="enable-background:new 0 0 964 268;" xml:space="preserve">
<style type="text/css">
	.st0{fill:#FFFFFF;}
	.st1{opacity:0.25;}
	.st2{fill:url(#SVGID_1_);}
</style>
<g>
	<g>
		<path class="st0" d="M326.1,267.8L175.2,6.9l0,0c-2.5-4.1-7-6.9-12.1-6.9s-9.7,2.8-12.2,6.9l-37.5,65.7c0,0,63.5,37.4,112.7,115.5
			c-22.8-22.3-53.5-35.9-87.2-35.9C55.8,152.2,0,267.9,0,267.9h74.1c10.9-47.5,49-82.6,94.4-82.6c1.3,0,2.7,0,4,0.1
			c0.4,0,0.9,0.1,1.3,0.1c0.9,0,1.8,0.1,2.7,0.2c0.5,0,1,0.1,1.5,0.2c0.8,0.1,1.6,0.2,2.4,0.3c0.5,0.1,1,0.1,1.6,0.2
			c0.8,0.1,1.5,0.2,2.3,0.4c0.5,0.1,1,0.2,1.6,0.3c0.8,0.2,1.5,0.3,2.3,0.5c0.5,0.1,1,0.2,1.5,0.4c0.8,0.2,1.7,0.4,2.5,0.7
			c0.4,0.1,0.8,0.2,1.2,0.3c1.2,0.4,2.4,0.7,3.6,1.1c0.3,0.1,0.7,0.2,1,0.4c0.9,0.3,1.8,0.6,2.6,1c0.5,0.2,1,0.4,1.5,0.6
			c0.7,0.3,1.4,0.6,2.1,0.9c0.5,0.2,1,0.5,1.6,0.7c0.6,0.3,1.3,0.6,1.9,0.9c0.5,0.3,1.1,0.5,1.6,0.8c0.6,0.3,1.2,0.6,1.8,1
			c0.5,0.3,1.1,0.6,1.6,0.9c0.6,0.3,1.2,0.7,1.7,1s1,0.6,1.6,1s1.2,0.8,1.7,1.1c0.5,0.3,1,0.6,1.5,1c1,0.7,2,1.4,2.9,2.1
			c0.5,0.4,1.1,0.8,1.6,1.2c0.5,0.4,1,0.7,1.4,1.1c0.5,0.4,1.1,0.9,1.6,1.4c0.4,0.4,0.9,0.8,1.3,1.1c0.5,0.5,1.1,1,1.6,1.5
			c0.4,0.4,0.8,0.8,1.2,1.1c0.5,0.5,1.1,1,1.6,1.5c0.4,0.4,0.8,0.8,1.1,1.2c0.5,0.5,1.1,1.1,1.6,1.6c0.4,0.4,0.7,0.7,1,1.1
			c0.5,0.6,1.1,1.2,1.6,1.8c0.2,0.3,0.4,0.5,0.7,0.8c2,2.3,3.9,4.7,5.7,7.2c0.2,0.3,0.5,0.7,0.7,1c0.5,0.7,1,1.4,1.5,2.1
			c0.3,0.4,0.5,0.8,0.8,1.2c0.5,0.7,0.9,1.4,1.4,2.2c0.2,0.4,0.5,0.8,0.7,1.2c0.5,0.7,0.9,1.5,1.3,2.2c0.2,0.4,0.4,0.8,0.7,1.2
			c0.4,0.8,0.9,1.6,1.3,2.4c0.2,0.3,0.3,0.7,0.5,1c1.5,3,3,6.1,4.3,9.3c0,0.1,0.1,0.2,0.1,0.3l0,0c2.1,5.2,3.9,10.7,5.2,16.4
			c0.1,0.5,0.2,1,0.3,1.4L326.1,267.8L326.1,267.8z"/>
		<g class="st1">
			<linearGradient id="SVGID_1_" gradientUnits="userSpaceOnUse" x1="17.9001" y1="219.15" x2="246.6001" y2="219.15">
				<stop  offset="0" style="stop-color:#FFFFFF"/>
				<stop  offset="0.1683" style="stop-color:#BCD0E4"/>
				<stop  offset="0.3332" style="stop-color:#83A7CD"/>
				<stop  offset="0.4909" style="stop-color:#5486BA"/>
				<stop  offset="0.6401" style="stop-color:#306CAB"/>
				<stop  offset="0.7787" style="stop-color:#1559A0"/>
				<stop  offset="0.9027" style="stop-color:#064E9A"/>
				<stop  offset="1" style="stop-color:#004A98"/>
			</linearGradient>
			<path class="st2" d="M232.5,212.3c0.4,0.4,0.8,0.8,1.1,1.2c0.5,0.5,1.1,1.1,1.6,1.6c0.4,0.4,0.7,0.7,1,1.1
				c0.5,0.6,1.1,1.2,1.6,1.8c0.2,0.3,0.4,0.5,0.7,0.8c2,2.3,3.9,4.7,5.7,7.2c0.2,0.3,0.5,0.7,0.7,1c0.5,0.7,1,1.4,1.5,2.1
				c0,0.1,0.1,0.2,0.2,0.2c-22.8-35.5-61.7-58.8-105.9-58.8c-58.7,0-108.1,41.2-122.8,97.3h56.3c10.9-47.5,49-82.6,94.4-82.6
				c1.3,0,2.7,0,4,0.1c0.4,0,0.9,0.1,1.3,0.1c0.9,0,1.8,0.1,2.7,0.2c0.5,0,1,0.1,1.5,0.2c0.8,0.1,1.6,0.2,2.4,0.3
				c0.5,0.1,1,0.1,1.6,0.2c0.8,0.1,1.5,0.2,2.3,0.4c0.5,0.1,1,0.2,1.6,0.3c0.8,0.2,1.5,0.3,2.3,0.5c0.5,0.1,1,0.2,1.5,0.4
				c0.8,0.2,1.7,0.4,2.5,0.7c0.4,0.1,0.8,0.2,1.2,0.3c1.2,0.4,2.4,0.7,3.6,1.1c0.3,0.1,0.7,0.2,1,0.4c0.9,0.3,1.8,0.6,2.6,1
				c0.5,0.2,1,0.4,1.5,0.6c0.7,0.3,1.4,0.6,2.1,0.9c0.5,0.2,1,0.5,1.6,0.7c0.6,0.3,1.3,0.6,1.9,0.9c0.5,0.3,1.1,0.5,1.6,0.8
				c0.6,0.3,1.2,0.6,1.8,1c0.5,0.3,1.1,0.6,1.6,0.9c0.6,0.3,1.2,0.7,1.7,1s1,0.6,1.6,1s1.2,0.8,1.7,1.1c0.5,0.3,1,0.6,1.5,1
				c1,0.7,2,1.4,2.9,2.1c0.5,0.4,1.1,0.8,1.6,1.2c0.5,0.4,1,0.7,1.4,1.1c0.5,0.4,1.1,0.9,1.6,1.4c0.4,0.4,0.9,0.8,1.3,1.1
				c0.5,0.5,1.1,1,1.6,1.5c0.4,0.4,0.8,0.8,1.2,1.1C231.4,211.3,231.9,211.8,232.5,212.3z"/>
		</g>
	</g>
	<g>
		<path class="st0" d="M393.5,267.8c-41.1,0-64.7-28.2-64.7-70.1c0-42.4,23-73.2,64.2-73.2c10.9,0,21.8,2.1,27.2,4.1V62.1h15.3
			v196.2C428,262.9,410.4,267.8,393.5,267.8z M420.2,141c-4.7-1.8-16.8-3.9-26.4-3.9c-32.6,0-49.7,25.6-49.7,60.3
			c0,34.4,17.3,57.7,49.2,57.7c9.8,0,22.5-2.8,26.9-5.4V141L420.2,141z"/>
		<path class="st0" d="M485.4,94.7c-6,0-10.9-4.7-10.9-10.6c0-6,4.9-10.6,10.9-10.6S496,78.2,496,84.1S491.4,94.7,485.4,94.7z
			 M477.7,265.2V125.7H493v139.5H477.7z"/>
		<path class="st0" d="M566.7,267.8c-14,0-30-3.9-39.9-9.6l6-11.9c7.8,4.7,22.2,8.8,33.6,8.8c20.5,0,34.2-10.1,34.2-25.9
			c0-16.8-13.5-23-31.6-29.8c-20.7-7.8-38.6-16.3-38.6-40.4c0-20.2,16-36,44.3-36c14.8,0,28,4.1,36.8,9.6l-6,11.4
			c-6.5-4.4-18.4-8.5-29.8-8.5c-18.9,0-29.8,10.6-29.8,23.6c0,16.8,12.7,22.3,29.8,28.7c21.7,8.3,40.6,16.3,40.6,41.7
			C616.4,252.5,597.5,267.8,566.7,267.8z"/>
		<path class="st0" d="M695.4,266.5c-20.7,0-35.5-11.4-35.5-34.9v-94.2h-21.7v-11.6h21.7V91.1l14.8-5.7v40.4h31.6v11.6h-31.6v93.7
			c0,15.5,10.6,22,23,22c3.1,0,6.5-0.5,8.5-1.3V265C703.9,266,700.3,266.5,695.4,266.5z"/>
		<path class="st0" d="M841.9,189.1L744,203.6c2.1,34.2,21.2,51.5,50.7,51.5c14,0,29-3.6,37.8-8.8l5.2,11.9
			c-9.3,5.4-25.9,9.6-43.5,9.6c-39.9,0-65-25.1-65-72.5c0-43,22.5-72.2,59-72.2c32.3,0,53.8,21,53.8,57.7
			C842.1,183.4,842.1,186,841.9,189.1z M788.3,135.3c-27.4,0-44.3,22.5-45,56.7l84.1-12.2C827.1,149.5,811.6,135.3,788.3,135.3z"/>
		<path class="st0" d="M930.9,267.8c-28.2,0-58.8-20.5-58.8-72.5s30.5-72.2,58.8-72.2c12.9,0,25.1,4.1,33.1,9.6l-5.4,11.4
			c-6.7-4.7-16.8-8-26.7-8c-21.2,0-44.3,15.5-44.3,59.3s23.3,59.3,44.3,59.3c9.8,0,19.9-3.4,26.7-8l5.4,11.7
			C955.5,263.9,943.8,267.8,930.9,267.8z"/>
	</g>
</g>
</svg>
