<?xml version="1.0" encoding="UTF-8"?>
<svg id="Capa_1" xmlns="http://www.w3.org/2000/svg" version="1.1" xmlns:xlink="http://www.w3.org/1999/xlink" viewBox="0 0 447.6 134">
  <defs>
    <style>
      .st0 {
        fill: #fff;
      }

      .st1 {
        fill: url(#Degradado_sin_nombre_2);
      }

      .st2, .st3 {
        isolation: isolate;
      }

      .st4 {
        fill: #0280e2;
      }

      .st3 {
        mix-blend-mode: multiply;
        opacity: .2;
      }

      .st5 {
        fill: url(#Degradado_sin_nombre);
      }

      .st6 {
        fill: #f0f7fe;
      }
    </style>
    <linearGradient id="Degradado_sin_nombre" x1="47.8" y1="64.9" x2="86.5" y2="64.9" gradientTransform="translate(0 134) scale(1 -1)" gradientUnits="userSpaceOnUse">
      <stop offset="0" stop-color="#c2e0f8" />
      <stop offset=".3" stop-color="#f4f9fe" />
      <stop offset=".4" stop-color="#f7fbfe" />
      <stop offset=".8" stop-color="#f3f9fe" />
      <stop offset="1" stop-color="#c2e0f8" />
    </linearGradient>
    <linearGradient id="Degradado_sin_nombre_2" x1="69.8" y1="71.7" x2="52.5" y2="71.7" gradientTransform="translate(0 134) scale(1 -1)" gradientUnits="userSpaceOnUse">
      <stop offset=".5" stop-color="#fff" />
      <stop offset="1" stop-color="#90c7f2" />
    </linearGradient>
  </defs>
  <g class="st2">
    <g id="Capa_11">
      <g>
        <g class="st2">
          <g class="st2">
            <path class="st0" d="M154.6,62.3h-4l-3.9-8.7h-18l-3.9,8.7h-3.8l15.1-33.3h3.5l15.1,33.3ZM137.8,33.4l-7.6,16.9h15.1l-7.5-16.9Z" />
            <path class="st0" d="M179,62.3v-4.9c-.5.7-1.1,1.4-1.7,2.1-.6.7-1.3,1.2-2.1,1.7-.8.5-1.6.9-2.5,1.2-.9.3-2,.4-3.1.4s-2.9-.3-4.3-.8c-1.4-.6-2.6-1.4-3.7-2.5-1.1-1.1-2-2.4-2.6-4-.7-1.6-1-3.4-1-5.4s.3-3.8,1-5.4c.7-1.6,1.5-2.9,2.6-4,1.1-1.1,2.3-1.9,3.7-2.5,1.4-.6,2.8-.9,4.3-.9s2.2.1,3.1.4c.9.3,1.8.7,2.5,1.1.8.5,1.4,1,2.1,1.7.6.6,1.2,1.3,1.6,2v-14.7h3.6v34.5h-3.6ZM178.4,46.2c-.5-1.2-1.1-2.1-2-3-.8-.8-1.8-1.4-2.8-1.9-1.1-.5-2.1-.7-3.3-.7s-2.3.2-3.4.6c-1,.4-1.9,1-2.7,1.8-.8.8-1.4,1.8-1.8,3-.5,1.2-.7,2.5-.7,4s.2,2.7.7,3.9c.5,1.2,1.1,2.2,1.9,3,.8.8,1.7,1.5,2.7,1.9,1,.4,2.1.7,3.3.7s2.2-.2,3.3-.7c1.1-.5,2-1.1,2.8-1.9.8-.8,1.5-1.8,2-3,.5-1.2.7-2.5.7-3.9s-.2-2.7-.7-3.9Z" />
            <path class="st0" d="M190.8,32.6v-4h4.2v4h-4.2ZM191,62.3v-24.4h3.6v24.4h-3.6Z" />
            <path class="st0" d="M219.2,58.5c-.5.9-1.1,1.7-1.8,2.3-.8.6-1.7,1.1-2.7,1.4-1.1.3-2.2.5-3.4.5-1.8,0-3.5-.3-5.3-1-1.8-.6-3.4-1.5-4.8-2.6l1.8-2.6c1.3,1,2.7,1.8,4.1,2.3,1.4.5,2.9.8,4.3.8s2.7-.3,3.6-1c.9-.7,1.4-1.6,1.4-2.8h0c0-.7-.2-1.2-.5-1.7s-.8-.8-1.3-1.2c-.6-.3-1.2-.6-2-.9-.7-.3-1.5-.5-2.3-.7-.9-.3-1.9-.6-2.9-.9-1-.3-1.8-.7-2.6-1.3-.8-.5-1.4-1.1-1.9-1.9-.5-.8-.7-1.7-.7-2.8h0c0-1.1.2-2.1.6-3,.4-.9,1-1.6,1.7-2.2.7-.6,1.6-1.1,2.6-1.4,1-.3,2.1-.5,3.3-.5s3,.2,4.6.7c1.5.5,2.9,1.1,4.2,2l-1.7,2.7c-1.1-.7-2.3-1.3-3.6-1.7-1.2-.4-2.5-.6-3.7-.6s-2.6.3-3.4,1c-.8.7-1.3,1.5-1.3,2.5h0c0,.7.2,1.2.5,1.6.3.4.8.8,1.4,1.1.6.3,1.3.6,2,.8.8.3,1.5.5,2.4.8.9.3,1.9.6,2.8.9.9.3,1.8.8,2.5,1.3.8.5,1.4,1.2,1.8,1.9.5.8.7,1.7.7,2.8h0c0,1.3-.2,2.3-.7,3.2Z" />
            <path class="st0" d="M231.1,55.4c0,1.5.4,2.6,1.1,3.2.8.6,1.7.9,3,.9s1.2,0,1.8-.2c.5-.1,1.1-.3,1.8-.7v3.1c-.6.3-1.3.6-2,.8s-1.5.3-2.4.3-1.9-.1-2.7-.4c-.8-.3-1.6-.7-2.2-1.2-.6-.6-1.1-1.3-1.4-2.1-.3-.9-.5-1.9-.5-3.2v-14.7h-3.4v-3.2h3.4v-7.4h3.6v7.4h7.7v3.2h-7.7v14.3Z" />
            <path class="st0" d="M247.7,55c.5,1,1.1,1.9,1.9,2.6s1.7,1.2,2.6,1.6c1,.4,2,.5,3.1.5,1.7,0,3.2-.3,4.4-.9,1.2-.6,2.3-1.5,3.3-2.5l2.3,2c-1.2,1.4-2.6,2.5-4.2,3.3-1.6.8-3.5,1.3-5.9,1.3s-3.2-.3-4.7-.9c-1.5-.6-2.8-1.5-3.9-2.6-1.1-1.1-2-2.5-2.6-4s-1-3.3-1-5.2.3-3.4.9-5c.6-1.6,1.4-2.9,2.4-4.1,1-1.1,2.3-2.1,3.7-2.7,1.4-.7,3-1,4.7-1s3.4.3,4.8,1c1.4.7,2.6,1.6,3.6,2.8s1.7,2.5,2.2,4.1c.5,1.6.8,3.3.8,5v.5c0,.2,0,.4,0,.6h-19.3c.1,1.3.4,2.5.9,3.5ZM262.4,48.8c0-1.1-.3-2.2-.7-3.2-.4-1-.9-1.9-1.5-2.6-.6-.8-1.4-1.4-2.3-1.8-.9-.5-2-.7-3.2-.7s-2,.2-3,.6-1.7,1-2.4,1.7c-.7.7-1.3,1.6-1.7,2.6-.4,1-.7,2.1-.8,3.3h15.6Z" />
            <path class="st0" d="M289.2,61.5c-1.6.9-3.5,1.3-5.8,1.3s-3.5-.3-5-1c-1.5-.7-2.8-1.6-4-2.7s-2-2.5-2.6-4c-.6-1.5-.9-3.2-.9-4.9s.3-3.4.9-4.9c.6-1.6,1.5-2.9,2.6-4.1s2.4-2.1,4-2.8c1.5-.7,3.2-1,5-1s2.2.1,3.2.3c.9.2,1.8.5,2.6.9.8.4,1.5.9,2.2,1.4.7.5,1.3,1.1,1.8,1.7l-2.4,2.5c-1-1-2-1.9-3.2-2.6-1.1-.7-2.6-1.1-4.2-1.1s-2.4.2-3.4.7c-1.1.5-2,1.2-2.8,2-.8.9-1.4,1.9-1.8,3-.4,1.1-.7,2.4-.7,3.7s.2,2.6.7,3.7c.5,1.2,1.1,2.2,1.9,3,.8.9,1.7,1.5,2.8,2,1.1.5,2.3.7,3.6.7s3-.3,4.2-1c1.2-.7,2.3-1.6,3.3-2.6l2.3,2.2c-1.2,1.4-2.6,2.5-4.2,3.4Z" />
          </g>
        </g>
        <g class="st2">
          <g class="st2">
            <path class="st0" d="M136.8,76.7v26.3h-7.3v-26.3h-10.1v-6.7h27.4v6.7h-10.1Z" />
            <path class="st0" d="M176.8,95.5c-.7,1.6-1.7,3-2.9,4.2-1.2,1.2-2.7,2.1-4.3,2.8-1.7.7-3.5,1-5.5,1s-3.8-.3-5.4-1c-1.7-.7-3.1-1.6-4.3-2.8-1.2-1.2-2.2-2.6-2.9-4.2-.7-1.6-1-3.3-1-5.1h0c0-1.9.3-3.6,1-5.2.7-1.6,1.7-3,2.9-4.2,1.2-1.2,2.7-2.1,4.3-2.8,1.7-.7,3.5-1,5.5-1s3.8.3,5.4,1c1.7.7,3.1,1.6,4.3,2.8,1.2,1.2,2.2,2.6,2.9,4.2.7,1.6,1,3.3,1,5.1h0c0,1.9-.3,3.6-1,5.2ZM170.8,90.4c0-.9-.2-1.8-.5-2.7-.3-.8-.8-1.6-1.4-2.2-.6-.6-1.3-1.2-2.1-1.5-.8-.4-1.7-.6-2.7-.6s-2,.2-2.8.5c-.8.4-1.5.9-2.1,1.5-.6.6-1,1.4-1.3,2.2-.3.8-.4,1.7-.4,2.7h0c0,1,.2,1.9.5,2.8.3.8.8,1.6,1.4,2.2.6.6,1.3,1.2,2.1,1.5.8.4,1.7.6,2.7.6s2-.2,2.8-.5c.8-.4,1.5-.9,2.1-1.5.6-.6,1-1.4,1.3-2.2.3-.8.4-1.7.4-2.7h0Z" />
            <path class="st0" d="M194.7,103c-.9.3-2,.4-3.2.4s-2.1-.1-3-.4c-.9-.2-1.7-.7-2.3-1.2-.6-.6-1.1-1.4-1.5-2.3-.4-1-.5-2.2-.5-3.7v-12h-3v-6.1h3v-6.5h7.2v6.5h5.9v6.1h-5.9v10.8c0,1.6.8,2.5,2.3,2.5s2.4-.3,3.5-.9v5.8c-.8.4-1.6.8-2.5,1.1Z" />
            <path class="st0" d="M217.4,103v-2.7c-.9,1-1.9,1.8-3.2,2.3-1.2.6-2.7.9-4.5.9s-2.3-.2-3.4-.5c-1.1-.3-2-.8-2.8-1.5-.8-.7-1.4-1.5-1.9-2.4-.5-1-.7-2.1-.7-3.3h0c0-1.5.3-2.7.8-3.7.5-1,1.2-1.8,2.1-2.5.9-.7,2-1.2,3.2-1.5,1.2-.3,2.6-.5,4.1-.5s2.4,0,3.4.3c1,.2,1.9.4,2.8.8v-.4c0-1.5-.5-2.7-1.4-3.4-.9-.8-2.3-1.2-4.1-1.2s-2.6.1-3.7.4c-1.1.2-2.2.6-3.3,1l-1.8-5.5c1.4-.6,2.8-1.1,4.3-1.5,1.5-.4,3.3-.6,5.5-.6,3.9,0,6.8,1,8.6,2.9,1.8,1.9,2.7,4.6,2.7,8v14.7h-6.9ZM217.6,92.8c-.6-.3-1.3-.5-2.1-.7-.8-.2-1.6-.3-2.5-.3-1.5,0-2.8.3-3.6.9s-1.3,1.5-1.3,2.6h0c0,1.1.4,1.8,1.1,2.4.7.5,1.7.8,2.8.8,1.7,0,3.1-.4,4.1-1.2,1-.8,1.5-1.9,1.5-3.2v-1.3Z" />
            <path class="st0" d="M230.9,103v-34.5h7.2v34.5h-7.2Z" />
            <path class="st0" d="M282.7,97.6c-.6,1.3-1.4,2.3-2.5,3.2s-2.3,1.5-3.8,2c-1.5.5-3.1.7-4.9.7s-5-.4-7.4-1.3-4.6-2.2-6.6-4l4.3-5.1c1.5,1.2,3.1,2.2,4.6,2.9,1.6.7,3.3,1.1,5.2,1.1s2.7-.3,3.5-.8c.8-.5,1.3-1.3,1.3-2.3h0c0-.6,0-1-.3-1.3s-.5-.7-1-1c-.5-.3-1.2-.6-2-.9-.9-.3-2-.6-3.4-1-1.7-.4-3.2-.9-4.5-1.4-1.4-.5-2.5-1.1-3.5-1.9-.9-.7-1.7-1.7-2.2-2.8s-.8-2.5-.8-4.1h0c0-1.6.3-3,.8-4.2.6-1.2,1.4-2.3,2.4-3.1,1-.9,2.2-1.6,3.6-2,1.4-.5,3-.7,4.7-.7,2.4,0,4.6.4,6.7,1.1,2,.7,3.9,1.8,5.6,3.1l-3.8,5.5c-1.5-1-2.9-1.8-4.3-2.4-1.4-.6-2.8-.9-4.2-.9s-2.5.3-3.2.8-1.1,1.2-1.1,2.1h0c0,.6.1,1.1.3,1.5s.6.7,1.1,1.1c.5.3,1.3.6,2.2.9s2.1.6,3.5,1c1.7.4,3.2.9,4.5,1.5,1.3.6,2.4,1.2,3.3,2,.9.8,1.6,1.7,2,2.7.5,1,.7,2.3.7,3.7h0c0,1.7-.3,3.2-.9,4.5Z" />
            <path class="st0" d="M305,103v-3.6c-.4.5-.9,1.1-1.3,1.5-.5.5-1,.9-1.6,1.3-.6.4-1.3.7-2,.9-.7.2-1.5.3-2.5.3-2.7,0-4.9-.8-6.3-2.5s-2.2-4-2.2-6.9v-16.4h7.2v14.1c0,1.7.4,3,1.1,3.8.8.9,1.8,1.3,3.2,1.3s2.5-.4,3.3-1.3c.8-.9,1.2-2.1,1.2-3.8v-14.1h7.2v25.3h-7.2Z" />
            <path class="st0" d="M344.2,96c-.6,1.6-1.5,3-2.5,4.1-1.1,1.1-2.3,2-3.7,2.5s-2.8.8-4.3.8-3.5-.4-4.7-1.1c-1.2-.7-2.3-1.6-3.1-2.6v10.8h-7.2v-32.9h7.2v3.6c.9-1.2,1.9-2.2,3.2-2.9,1.2-.8,2.8-1.1,4.7-1.1s2.9.3,4.3.8,2.6,1.4,3.7,2.5c1.1,1.1,1.9,2.5,2.6,4.1.6,1.6,1,3.5,1,5.6h0c0,2.2-.3,4.1-1,5.7ZM338,90.3c0-1-.2-2-.5-2.9s-.8-1.6-1.3-2.2-1.2-1.1-2-1.4c-.7-.3-1.5-.5-2.4-.5s-1.6.2-2.4.5c-.7.3-1.4.8-1.9,1.4s-1,1.4-1.3,2.2-.5,1.8-.5,2.9h0c0,1.1.2,2.1.5,3s.8,1.6,1.3,2.2c.6.6,1.2,1.1,1.9,1.4.7.3,1.5.5,2.4.5s1.6-.2,2.4-.5c.7-.3,1.4-.8,2-1.4.6-.6,1-1.4,1.3-2.2s.5-1.8.5-2.9h0Z" />
            <path class="st0" d="M376.1,96c-.6,1.6-1.5,3-2.5,4.1-1.1,1.1-2.3,2-3.7,2.5s-2.8.8-4.3.8-3.5-.4-4.7-1.1c-1.2-.7-2.3-1.6-3.1-2.6v10.8h-7.2v-32.9h7.2v3.6c.9-1.2,1.9-2.2,3.2-2.9,1.2-.8,2.8-1.1,4.7-1.1s2.9.3,4.3.8,2.6,1.4,3.7,2.5c1.1,1.1,1.9,2.5,2.6,4.1.6,1.6,1,3.5,1,5.6h0c0,2.2-.3,4.1-1,5.7ZM369.8,90.3c0-1-.2-2-.5-2.9s-.8-1.6-1.3-2.2-1.2-1.1-2-1.4c-.7-.3-1.5-.5-2.4-.5s-1.6.2-2.4.5c-.7.3-1.4.8-1.9,1.4s-1,1.4-1.3,2.2-.5,1.8-.5,2.9h0c0,1.1.2,2.1.5,3s.8,1.6,1.3,2.2c.6.6,1.2,1.1,1.9,1.4.7.3,1.5.5,2.4.5s1.6-.2,2.4-.5c.7-.3,1.4-.8,2-1.4.6-.6,1-1.4,1.3-2.2s.5-1.8.5-2.9h0Z" />
            <path class="st0" d="M407.4,95.5c-.7,1.6-1.7,3-2.9,4.2-1.2,1.2-2.7,2.1-4.3,2.8-1.7.7-3.5,1-5.5,1s-3.8-.3-5.4-1c-1.7-.7-3.1-1.6-4.3-2.8-1.2-1.2-2.2-2.6-2.9-4.2s-1-3.3-1-5.1h0c0-1.9.3-3.6,1-5.2s1.7-3,2.9-4.2c1.2-1.2,2.7-2.1,4.3-2.8s3.5-1,5.5-1,3.8.3,5.4,1c1.7.7,3.1,1.6,4.3,2.8,1.2,1.2,2.2,2.6,2.9,4.2.7,1.6,1,3.3,1,5.1h0c0,1.9-.3,3.6-1,5.2ZM401.4,90.4c0-.9-.2-1.8-.5-2.7-.3-.8-.8-1.6-1.4-2.2s-1.3-1.2-2.1-1.5-1.7-.6-2.7-.6-2,.2-2.8.5c-.8.4-1.5.9-2.1,1.5-.6.6-1,1.4-1.3,2.2-.3.8-.4,1.7-.4,2.7h0c0,1,.2,1.9.5,2.8.3.8.8,1.6,1.4,2.2.6.6,1.3,1.2,2.1,1.5.8.4,1.7.6,2.7.6s2-.2,2.8-.5c.8-.4,1.5-.9,2.1-1.5.6-.6,1-1.4,1.3-2.2.3-.8.4-1.7.4-2.7h0Z" />
            <path class="st0" d="M428.5,84.7c-2.4,0-4.3.7-5.6,2.2-1.4,1.4-2.1,3.7-2.1,6.7v9.3h-7.2v-25.3h7.2v5.1c.7-1.7,1.7-3.1,3-4.2,1.3-1,3-1.5,5.1-1.4v7.5h-.4Z" />
            <path class="st0" d="M445.1,103c-.9.3-2,.4-3.2.4s-2.1-.1-3-.4c-.9-.2-1.7-.7-2.3-1.2s-1.1-1.4-1.5-2.3c-.4-1-.5-2.2-.5-3.7v-12h-3v-6.1h3v-6.5h7.2v6.5h5.9v6.1h-5.9v10.8c0,1.6.8,2.5,2.3,2.5s2.4-.3,3.5-.9v5.8c-.8.4-1.6.8-2.5,1.1Z" />
          </g>
        </g>
        <g>
          <image class="st3" width="135" height="135" transform="" />
          <circle class="st4" cx="66.7" cy="67" r="36.9" />
        </g>
        <path class="st5" d="M86,52.8c-.3-.3-.8-.5-1.2-.5h-20.9c.2.6,0,1.5,0,1.9l1.3.5c.6-.2,1.2-1.5,1.9-1.3.3,0,2.2,2,2.5,2.5h12.5c.2,0,.5,0,.6.3s.3.4.3.6v17.6c0,.2,0,.5-.3.6-.2.2-.4.3-.6.3h-30c-.5,0-.9-.4-.9-.9v-17.6c0-.5.4-.9.9-.9h1.8c0-.3,2.2-2.3,2.5-2.4.6,0,1.5.8,1.8,1.3l1.4-.5c0-.5,0-1.3,0-1.9h-10.2c-1,0-1.8.8-1.8,1.8v22.9c0,.5.2.9.5,1.2s.8.5,1.2.5h15l-1.3,5.3h-3.1c-.5,0-.9.4-.9.9s.4.9.9.9h14.1c.5,0,.9-.4.9-.9s-.4-.9-.9-.9h-3.1l-1.3-5.3h15c.5,0,.9-.2,1.2-.5s.5-.8.5-1.2v-22.9c0-.5-.2-.9-.5-1.2l.2-.2Z" />
        <path class="st1" d="M54.5,70c.2,0,.6-.3,1-.5l3.3-1.6c-2.3-2.1-2.6-5.7,0-7.8,3.5-2.9,8.6,0,8.2,4.4l.8-.3c.5-.8.8-1.7,1.3-2.4h0l-.4-1.3c.4-.6,1.4-1.1,1.3-1.9,0-.3-2.2-2.5-2.5-2.5-.7-.2-1.3,1.1-1.9,1.3l-1.3-.5c0-.6.2-2-.4-2.3-.3,0-2.9,0-3.2,0-1.1.2-.6,1.6-.7,2.3l-1.4.5c-.3-.5-1.2-1.4-1.8-1.3-.3,0-2.3,2.1-2.5,2.4-.5,1.1,1.3,1.6,1.2,2.2,0,.3-.5.8-.5,1.1-.5,0-2-.2-2.3.4,0,.3,0,3.5,0,3.7.4.5,2.1,0,2.3.4l.4,1.2c-1,.9-1.8,1.5-.8,2.5h-.1Z" />
        <path class="st6" d="M72.1,64.2s-.2.3-.2.4c0,.4.7,2.3,1.1,2.4.8.4,2.6-1.1,3.2-.9s.2,1.5,0,1.9-1.9,1.5-2.5,1.7c-1.4.4-2.6-.4-4-.7l-12.7,5.3c-2.1.5-3.4-2.2-1.7-3.5l12.8-5.4c.7-1.2,1.1-2.7,2.4-3.4.5-.2,1.9-.6,2.4-.6s2,.7,1.8,1.5-2.2.9-2.7,1.3h0Z" />
      </g>
    </g>
  </g>
</svg>